# xmcd
#
# Track frame offsets: 
#        150
#        20153
#        35910
#        53660
#        70501
#        84914
#        100697
#        115138
#        133358
#        150765
#        170631
#        189168
#        207622
#        221853
#        236862
#        252337
#        264827
#        285793
#        302409
#        316459
#        335413
#
# Disc length: 4672 seconds
#
# Revision: 0
# Processed by: cddbd v1.5.2PL0 Copyright (c) Steve Scherf et al.
# Submitted via: ExactAudioCopy v0.99pb3
#
DISCID=26123e15
DTITLE=Various Artist - ERG Nu Urban Traxx #118
DYEAR=2008
DGENRE=Rap
TTITLE0=Usher Ft Young Jeezy - Love In The Club
TTITLE1=Mariah Carey - Touch My Body
TTITLE2=Bow Wow Ft O'Marion - He Ain't Gotta Know
TTITLE3=Webbie Ft LeToya Luckett - I Miss You
TTITLE4=Janet - Luv
TTITLE5=Flo_Rida Ft Timbaland - Elevators
TTITLE6=Michael Jackson FT Will I Am - The Girl Is Mine 2008
TTITLE7=Keith Sweat Ft Paisley Bettis - Suga Suga Suga
TTITLE8=Yin Yang Twins - Drop
TTITLE9=Mary J Blige - Just Fine (Treat Em' Right Remix)
TTITLE10=Grind Mode - She's So Fly (I'm So High)
TTITLE11=Colby O'Donis Ft Akon - What U Got
TTITLE12=Lil' Will - My Doughie
TTITLE13=Making The Band 4 - Got Me Going
TTITLE14=Shawty Lo - Dunn Dunn
TTITLE15=Jim Jones - Love Me More
TTITLE16=Ledisi - Alright
TTITLE17=Sean Garrett Ft Ludacris - Grippin'
TTITLE18=Scarface - Never
TTITLE19=Stacks Ft Swizz Beats - Whatcha' Lookin' At 
TTITLE20=Emily - U and I
EXTD=
EXTT0=
EXTT1=
EXTT2=
EXTT3=
EXTT4=
EXTT5=
EXTT6=
EXTT7=
EXTT8=
EXTT9=
EXTT10=
EXTT11=
EXTT12=
EXTT13=
EXTT14=
EXTT15=
EXTT16=
EXTT17=
EXTT18=
EXTT19=
EXTT20=
PLAYORDER=
